<?xml version="1.0" encoding="UTF-8"?>
<!-- FILE: hq/core/design/diagrams/d3-gateway-routing.svg -->
<svg xmlns="http://www.w3.org/2000/svg" width="1200" height="800" viewBox="0 0 1200 800" role="img" aria-label="D3 Gateway routing with ambiguity check" style="background:#ffffff;font-family:Inter, Segoe UI, sans-serif">
<title>D3 — Gateway Routing — Clarification Loop + Lane Classification</title>
<desc>Gateway routing diagram with clarification loop</desc>
<style>
  .box { fill:#f5f5f5; stroke:#6e1b2d; stroke-width:2; rx:12; ry:12; }
  .box-lead { fill:#6e1b2d; stroke:#3a0d16; stroke-width:2; rx:12; ry:12; }
  .box-gateway { fill:#6e1b2d; stroke:#2563eb; stroke-width:2.5; rx:12; ry:12; }
  .box-kernel { fill:#6e1b2d; stroke:#3a0d16; stroke-width:2; rx:10; ry:10; }
  .text { font-size:18px; fill:#1f2937; font-weight:600; text-anchor:middle; dominant-baseline:middle; }
  .text-white { font-size:18px; fill:#ffffff; font-weight:600; text-anchor:middle; dominant-baseline:middle; }
  .text-small { font-size:14px; fill:#4b5563; text-anchor:middle; }
  .text-small-white { font-size:13px; fill:#f3f4f6; text-anchor:middle; }
  .arrow { stroke:#2563eb; stroke-width:2.5; fill:none; marker-end:url(#arrowBlue); }
  .arrow-red { stroke:#dc2626; stroke-width:2; fill:none; stroke-dasharray:6 4; marker-end:url(#arrowRed); }
  .arrow-orange { stroke:#f59e0b; stroke-width:2; fill:none; marker-end:url(#arrowOrange); }
  .footer { font-size:13px; fill:#6b7280; text-anchor:middle; }
</style>
<defs>
  <marker id="arrowBlue" viewBox="0 0 10 10" refX="9" refY="5" markerWidth="8" markerHeight="8" orient="auto-start-reverse"><path d="M 0 0 L 10 5 L 0 10 z" fill="#2563eb"/></marker>
  <marker id="arrowRed" viewBox="0 0 10 10" refX="9" refY="5" markerWidth="8" markerHeight="8" orient="auto-start-reverse"><path d="M 0 0 L 10 5 L 0 10 z" fill="#dc2626"/></marker>
  <marker id="arrowOrange" viewBox="0 0 10 10" refX="9" refY="5" markerWidth="8" markerHeight="8" orient="auto-start-reverse"><path d="M 0 0 L 10 5 L 0 10 z" fill="#f59e0b"/></marker>
</defs>
<rect width="1200" height="800" fill="#ffffff"/>
<text x="600" y="36" text-anchor="middle" font-size="22" font-weight="700" fill="#6e1b2d">D3 — Gateway Routing — Clarification Loop + Lane Classification</text>
<text x="600" y="56" text-anchor="middle" font-size="12" fill="#6b7280">SOFI HQ — Visual Diagrams Layer v1 — D3 Gateway routing with ambiguity check — source file:line in diagram</text>
<rect x="510" y="75" width="180" height="70" fill="#f5f5f5" stroke="#6b7280" stroke-width="1.5" rx="12" ry="12"/>
<text x="600" y="98" text-anchor="middle" font-size="12" font-weight="600" fill="#111827">User</text>
<text x="600" y="114" text-anchor="middle" font-size="12" font-weight="600" fill="#111827">raw speech</text>
<rect x="510" y="155" width="180" height="70" fill="#6e1b2d" stroke="#6b7280" stroke-width="1.5" rx="12" ry="12"/>
<text x="600" y="178" text-anchor="middle" font-size="12" font-weight="600" fill="#ffffff">gtw-intake-reformer</text>
<text x="600" y="194" text-anchor="middle" font-size="12" font-weight="600" fill="#ffffff">5-section Intake</text>
<rect x="510" y="235" width="180" height="70" fill="#dbeafe" stroke="#6b7280" stroke-width="1.5" rx="6" ry="6" transform="rotate(0 600 270)"/>
<text x="600" y="258" text-anchor="middle" font-size="12" font-weight="600" fill="#1e3a5f">ambiguity ≥20% ?</text>
<text x="600" y="274" text-anchor="middle" font-size="12" font-weight="600" fill="#1e3a5f">Law 16</text>
<rect x="210" y="335" width="180" height="70" fill="#fef3c7" stroke="#6b7280" stroke-width="1.5" rx="12" ry="12"/>
<text x="300" y="358" text-anchor="middle" font-size="12" font-weight="600" fill="#78350f">Clarification Card</text>
<text x="300" y="374" text-anchor="middle" font-size="12" font-weight="600" fill="#78350f">1-3 questions, halt</text>
<text x="300" y="390" text-anchor="middle" font-size="12" font-weight="600" fill="#78350f">wait 24h</text>
<rect x="210" y="435" width="180" height="70" fill="#dbeafe" stroke="#6b7280" stroke-width="1.5" rx="6" ry="6" transform="rotate(0 300 470)"/>
<text x="300" y="458" text-anchor="middle" font-size="12" font-weight="600" fill="#1e3a5f">answered within 24h ?</text>
<rect x="210" y="535" width="180" height="70" fill="#fee2e2" stroke="#6b7280" stroke-width="1.5" rx="12" ry="12"/>
<text x="300" y="558" text-anchor="middle" font-size="12" font-weight="600" fill="#7f1d1d">escalate brd-arbiter</text>
<text x="300" y="574" text-anchor="middle" font-size="12" font-weight="600" fill="#7f1d1d">24h window</text>
<rect x="510" y="365" width="180" height="70" fill="#dbeafe" stroke="#6b7280" stroke-width="1.5" rx="6" ry="6" transform="rotate(0 600 400)"/>
<text x="600" y="388" text-anchor="middle" font-size="12" font-weight="600" fill="#1e3a5f">Lane classification</text>
<text x="600" y="404" text-anchor="middle" font-size="12" font-weight="600" fill="#1e3a5f">Fast / Standard / Fateful</text>
<rect x="160" y="485" width="180" height="70" fill="#dcfce7" stroke="#6b7280" stroke-width="1.5" rx="12" ry="12"/>
<text x="250" y="508" text-anchor="middle" font-size="12" font-weight="600" fill="#14532d">FAST 🟢 → lead only</text>
<rect x="510" y="485" width="180" height="70" fill="#fef9c3" stroke="#6b7280" stroke-width="1.5" rx="12" ry="12"/>
<text x="600" y="508" text-anchor="middle" font-size="12" font-weight="600" fill="#422006">STANDARD 🟡 → brd-ceo</text>
<rect x="860" y="485" width="180" height="70" fill="#fee2e2" stroke="#6b7280" stroke-width="1.5" rx="12" ry="12"/>
<text x="950" y="508" text-anchor="middle" font-size="12" font-weight="600" fill="#7f1d1d">FATEFUL 🔴 → brd-ceo+Board</text>
<rect x="510" y="585" width="180" height="70" fill="#6e1b2d" stroke="#6b7280" stroke-width="1.5" rx="12" ry="12"/>
<text x="600" y="608" text-anchor="middle" font-size="12" font-weight="600" fill="#ffffff">RCCF Work Order</text>
<text x="600" y="624" text-anchor="middle" font-size="12" font-weight="600" fill="#ffffff">Law 5</text>
<rect x="510" y="665" width="180" height="70" fill="#e0e7ff" stroke="#6b7280" stroke-width="1.5" rx="12" ry="12"/>
<text x="600" y="688" text-anchor="middle" font-size="12" font-weight="600" fill="#1e1b4b">Room Lead → Agents</text>
<text x="600" y="704" text-anchor="middle" font-size="12" font-weight="600" fill="#1e1b4b">file:line + exit</text>
<path d="M 600 145 L 600 155" class="arrow"/>
<path d="M 600 225 L 600 235" class="arrow"/>
<path d="M 600 305 L 300 335" class="arrow" stroke="#f59e0b"/>
<text x="420" y="315" font-size="11" fill="#78350f">yes</text>
<path d="M 600 305 L 600 365" class="arrow"/>
<text x="615" y="340" font-size="11" fill="#1e3a5f">no</text>
<path d="M 300 405 L 300 435" class="arrow"/>
<path d="M 300 505 L 300 535" class="arrow"/>
<text x="315" y="555" font-size="11" fill="#7f1d1d">no &gt;24h</text>
<path d="M 330 600 L 550 435" class="arrow-red"/>
<path d="M 600 435 L 600 485" class="arrow"/>
<path d="M 510 520 L 340 520" class="arrow"/>
<path d="M 690 520 L 690 585" class="arrow"/>
<path d="M 860 520 L 690 585" class="arrow"/>
<path d="M 600 655 L 600 665" class="arrow"/>

<text x="600" y="780" class="footer">Source: README.md:80 + hq/core/domain/rooms/14-gateway/charter.md:86 — Generated from Mermaid source — SOFI-HQ-INT-007 — Law 4 evidence</text>
</svg>